<svg width="40" height="2" viewBox="0 0 40 2" fill="none" xmlns="http://www.w3.org/2000/svg">
<path d="M1 0L-1.54587e-09 1.54587e-09L1.54587e-09 2L1 2L1 0ZM1 2L2.95 2L2.95 -3.01444e-09L1 0L1 2ZM6.85 2L10.75 2L10.75 4.45324e-08L6.85 -9.04333e-09L6.85 2ZM14.65 2L18.55 2L18.55 3.24747e-08L14.65 3.85036e-08L14.65 2ZM22.45 2L26.35 2L26.35 2.04169e-08L22.45 2.64458e-08L22.45 2ZM30.25 2L34.15 2L34.15 6.79638e-08L30.25 7.39927e-08L30.25 2ZM38.05 2L40 2L40 5.89204e-08L38.05 6.19349e-08L38.05 2Z" fill="#0B9B85" fill-opacity="0.5"/>
</svg>
